<svg width="23" height="12" viewBox="0 0 23 12" fill="none" xmlns="http://www.w3.org/2000/svg">
<path d="M22.05 10.05V11.05H21.05M21.05 0.0500488H22.05V1.05005M0.0500488 1.05005V0.0500488H1.05005M1.05005 11.05H0.0500488V10.05M1.54224 0.563721H3.38794C4.57935 0.563721 5.38403 0.618408 5.802 0.727783C6.22388 0.837158 6.54419 1.01685 6.76294 1.26685C6.98169 1.51685 7.11841 1.79614 7.1731 2.10474C7.22778 2.40942 7.25513 3.01099 7.25513 3.90942V7.23169C7.25513 8.08325 7.21411 8.65356 7.13208 8.94263C7.05396 9.22778 6.91528 9.45239 6.71606 9.61646C6.51685 9.77661 6.27075 9.88989 5.97778 9.9563C5.68481 10.0188 5.24341 10.05 4.65356 10.05H1.54224V0.563721ZM4.00903 2.18677V8.427C4.3645 8.427 4.58325 8.35669 4.66528 8.21606C4.74731 8.07153 4.78833 7.68286 4.78833 7.05005V3.3645C4.78833 2.93481 4.77466 2.65942 4.74731 2.53833C4.71997 2.41724 4.65747 2.32935 4.55981 2.27466C4.46216 2.21606 4.27856 2.18677 4.00903 2.18677ZM8.17505 0.563721H9.92114C11.0852 0.563721 11.8723 0.608643 12.2825 0.698486C12.6965 0.78833 13.0325 1.0188 13.2903 1.38989C13.552 1.75708 13.6829 2.34497 13.6829 3.15356C13.6829 3.89185 13.5911 4.38794 13.4075 4.64185C13.2239 4.89575 12.8625 5.0481 12.3235 5.09888C12.8118 5.21997 13.1399 5.38208 13.3079 5.58521C13.4758 5.78833 13.5793 5.97583 13.6184 6.14771C13.6614 6.31567 13.6829 6.78247 13.6829 7.5481V10.05H11.3918V6.89771C11.3918 6.38989 11.3508 6.07544 11.2688 5.95435C11.1907 5.83325 10.9817 5.77271 10.6418 5.77271V10.05H8.17505V0.563721ZM10.6418 2.18677V4.29614C10.9192 4.29614 11.1125 4.25903 11.2219 4.18481C11.3352 4.10669 11.3918 3.85864 11.3918 3.44067V2.91919C11.3918 2.61841 11.3372 2.42114 11.2278 2.32739C11.1223 2.23364 10.927 2.18677 10.6418 2.18677ZM20.4036 4.70044H17.9368V3.0481C17.9368 2.56763 17.9094 2.2688 17.8547 2.15161C17.804 2.03052 17.6887 1.96997 17.509 1.96997C17.3059 1.96997 17.177 2.04224 17.1223 2.18677C17.0676 2.3313 17.0403 2.6438 17.0403 3.12427V7.53052C17.0403 7.99146 17.0676 8.29224 17.1223 8.43286C17.177 8.57349 17.3 8.6438 17.4915 8.6438C17.675 8.6438 17.7942 8.57349 17.8489 8.43286C17.9075 8.29224 17.9368 7.96216 17.9368 7.44263V6.25317H20.4036V6.62231C20.4036 7.60278 20.3333 8.2981 20.1926 8.70825C20.0559 9.11841 19.7493 9.47778 19.2727 9.78638C18.8 10.095 18.2161 10.2493 17.5208 10.2493C16.7981 10.2493 16.2024 10.1184 15.7336 9.85669C15.2649 9.59497 14.9543 9.23364 14.802 8.77271C14.6497 8.30786 14.5735 7.6106 14.5735 6.68091V3.90942C14.5735 3.22583 14.5969 2.71411 14.6438 2.37427C14.6907 2.03052 14.8293 1.70044 15.0598 1.38403C15.2942 1.06763 15.6165 0.81958 16.0266 0.639893C16.4407 0.456299 16.9153 0.364502 17.4504 0.364502C18.177 0.364502 18.7766 0.505127 19.2493 0.786377C19.7219 1.06763 20.0325 1.41919 20.1809 1.84106C20.3293 2.25903 20.4036 2.91138 20.4036 3.7981V4.70044Z" stroke="white" stroke-width="0.1"/>
</svg>
